<svg width="196" height="331" viewBox="100 50 196 331" fill="none" xmlns="http://www.w3.org/2000/svg">
<g clip-path="url(#clip0_411_147)">
<path d="M117.516 88.4195C118.807 92.961 120.954 97.2148 123.365 101.122C124.586 103.068 125.912 104.938 127.376 106.588C128.842 108.188 130.487 109.727 132.189 110.191C133.893 110.703 135.299 109.564 136.225 107.801C137.132 106.038 137.817 103.918 138.09 101.794C138.371 99.6295 138.298 97.3571 138.121 95.0481C137.952 92.7532 137.702 90.3817 137.452 88.0574C137.187 85.7469 136.847 83.4502 136.281 81.2285C135.707 79.0185 134.906 76.8464 133.963 74.7331C132.024 70.5406 129.781 66.3962 127.647 62.2353C125.499 58.0719 123.278 53.9651 121.05 49.8557L117.631 43.74C116.516 41.7515 115.294 39.5624 113.544 39.0008L114.149 38.5734C113.745 42.5545 115.545 46.4809 116.51 50.6939C117.025 52.7875 117.311 55.1131 117.132 57.263C116.995 59.4171 116.631 61.4324 116.447 63.4486C116.054 67.4901 116.142 71.6978 116.194 75.8953C116.237 80.0808 116.485 84.3085 117.516 88.4195ZM117.352 88.4649C116.296 84.3355 115.939 80.0869 115.592 75.8749C115.304 71.6742 114.878 67.4436 115.069 63.18C115.162 61.0453 115.481 58.9978 115.586 56.9877C115.699 54.98 115.545 53.0399 115.067 51.0161C114.621 49.0032 113.987 46.977 113.555 44.8461C113.105 42.7337 112.839 40.471 113.156 38.3034L113.249 37.6814L113.759 37.8833C114.882 38.31 115.78 39.2583 116.444 40.2519C117.126 41.2525 117.64 42.334 118.193 43.356L121.492 49.5462C123.752 53.6323 126.005 57.7258 128.339 61.7551C130.613 65.839 133.09 69.7376 135.186 74.0382C136.225 76.1813 137.168 78.4325 137.806 80.8018C138.453 83.1662 138.852 85.5631 139.165 87.9395C139.702 92.6219 140.518 97.4046 139.879 102.294C139.724 103.489 139.451 104.702 139.07 105.799C138.744 106.913 138.291 108.01 137.732 109.039C137.135 110.04 136.453 111.078 135.385 111.654C134.351 112.273 133.055 112.359 131.933 111.971C129.655 111.187 127.996 109.358 126.555 107.531C125.115 105.662 123.902 103.632 122.773 101.562C120.592 97.3799 118.641 93.0613 117.352 88.4635" fill="#EDCA5C"/>
<path d="M129.839 113.112C128.815 110.834 127.502 108.772 126.05 106.851C124.618 104.903 123.055 103.092 121.41 101.415C118.214 97.907 114.359 95.518 110.698 92.4999C108.876 91.0009 107.058 89.4393 105.431 87.5804C103.778 85.7565 102.343 83.7007 101.003 81.6217C98.3315 77.4964 95.7918 73.1469 92.2175 70.1492L92.694 69.8503C93.37 76.2715 94.9031 82.6027 96.8339 88.7244C97.8215 91.7805 98.9205 94.7982 100.171 97.7291C101.416 100.643 102.894 103.396 104.834 105.56C106.783 107.72 109.221 109.314 111.684 110.943C112.932 111.754 114.17 112.579 115.406 113.575C116.653 114.59 117.751 115.776 118.752 117.034C122.724 122.104 125.588 127.986 128.114 133.936L127.965 134.024C124.937 128.399 121.694 122.82 117.755 118.172C116.772 117.023 115.714 115.974 114.591 115.138C113.449 114.288 112.178 113.542 110.941 112.749C108.458 111.181 105.819 109.577 103.616 107.089C101.373 104.621 99.892 101.516 98.6447 98.4887C97.4224 95.4363 96.3434 92.3435 95.4604 89.176C93.6434 82.8475 92.6504 76.3368 92.0821 69.8665L92.0176 69.0963L92.5569 69.5752C96.1559 72.7934 98.7707 77.1276 101.648 81.0353C103.088 82.9941 104.575 84.8709 106.241 86.4966C107.908 88.1136 109.666 89.6252 111.485 91.0472C113.318 92.4519 115.149 93.8956 116.983 95.3732C118.824 96.8445 120.613 98.5279 122.224 100.356C125.385 104.049 128.406 108.167 130 113.044L129.839 113.112Z" fill="#EDCA5C"/>
<path d="M128.186 129.584C130.824 130.285 133.499 130.616 136.061 130.257C138.614 129.893 141.059 128.974 143.3 127.671C145.541 126.334 147.549 124.544 149.355 122.526C151.154 120.505 152.785 118.233 154.071 115.669C156.7 110.558 157.898 104.394 158.032 98.1986C158.137 91.9681 157.315 85.6999 156.216 79.5203L157.751 79.2288C158.337 81.499 158.111 83.8381 157.552 85.8506C156.996 87.8853 156.146 89.6899 155.262 91.4096C153.485 94.8141 151.546 98.1328 149.246 101.129C146.933 104.08 144.251 106.737 141.096 108.489C137.964 110.241 134.36 111.102 130.806 110.418L130.812 110.216C134.31 110.337 137.62 109.157 140.477 107.242C143.338 105.31 145.81 102.707 147.898 99.7132C150.037 96.7546 151.868 93.4819 153.66 90.1543C154.546 88.5087 155.383 86.8474 155.91 85.0652C156.449 83.2956 156.654 81.4089 156.231 79.5983L157.766 79.3155C158.722 85.6274 159.088 92.0376 158.686 98.2996C158.324 104.552 157.24 110.703 155.01 116.329C152.736 121.916 148.861 126.575 144.009 129.183C139.236 131.949 133.289 132.24 128.132 129.771L128.186 129.584Z" fill="#EDCA5C"/>
<path d="M126.231 143.58C123.93 142.478 121.851 140.667 120.012 138.649C118.177 136.608 116.515 134.391 114.873 132.208C111.652 127.787 108.155 123.725 103.657 121.742C101.433 120.689 99.0979 119.738 96.8106 118.599C94.5227 117.462 92.3005 116.142 90.1111 114.765C85.7445 111.972 81.5821 108.738 77.6477 105.083L78.2901 104.684C78.7983 107.647 80.3271 110.311 82.1714 112.5C84.0095 114.728 86.2173 116.492 88.4784 118.234C90.7274 119.971 93.0663 121.754 95.2139 123.832C97.3721 125.891 99.3639 128.16 101.279 130.473C105.101 135.108 108.57 140.027 112.518 144.344C116.439 148.646 120.832 152.516 125.918 154.589L125.883 154.789C120.633 153.347 115.8 149.721 111.642 145.53C107.437 141.298 103.767 136.484 99.9878 131.927C98.102 129.65 96.1681 127.447 94.1438 125.393C92.1191 123.348 89.9194 121.578 87.6562 119.763C85.4248 117.926 83.1535 115.953 81.2688 113.464C79.415 111.003 77.9153 108.005 77.4943 104.78L77.3378 103.556L78.1366 104.381C81.8484 108.223 85.988 111.505 90.378 114.079C92.5652 115.388 94.8467 116.444 97.1287 117.409C99.3992 118.405 101.766 119.039 104.105 120.13C106.446 121.157 108.786 122.704 110.675 124.752C112.602 126.751 114.258 129.007 115.852 131.262C118.976 135.789 121.961 140.514 126.298 143.398L126.231 143.58Z" fill="#EDCA5C"/>
<path d="M132.387 187.603C134.867 181.187 136.573 174.379 137.4 167.327C137.655 165.359 138.506 163.659 139.536 162.29C140.567 160.903 141.775 159.771 143 158.741C145.468 156.705 148.045 154.893 150.681 153.197C155.974 149.871 161.477 147.028 166.601 143.451C169.162 141.665 171.652 139.743 173.952 137.562C176.237 135.351 178.367 132.941 180.24 130.285L181.133 131.183C179.403 133.871 176.826 135.636 174.11 136.611C171.382 137.65 168.466 137.939 165.607 137.973C159.888 138.023 154.246 137.331 149.046 139.043C143.875 140.756 139.158 144.013 135.446 148.506C131.753 153.003 129.018 158.676 127.779 165.038L127.613 164.982C128.333 158.425 130.793 152.297 134.429 147.387C138.134 142.568 142.931 138.799 148.442 137.011C151.19 136.134 154.093 135.725 156.962 135.703C159.836 135.699 162.679 135.963 165.463 135.986C168.257 136.03 170.991 135.777 173.576 134.943C176.153 134.118 178.529 132.612 180.229 130.306L181.121 131.205C177.002 136.378 172.042 140.424 166.915 144.011C161.794 147.646 156.518 150.987 151.439 154.629C148.899 156.429 146.369 158.25 143.97 160.259C141.594 162.179 139.245 164.467 138.742 167.715C137.701 174.841 135.623 181.681 132.544 187.711L132.387 187.603Z" fill="#EDCA5C"/>
<path d="M126.601 166.579C123.248 162.309 118.824 159.357 114.242 158.308C111.951 157.761 109.633 157.738 107.433 158.265C105.24 158.836 102.957 159.605 100.606 160.1C95.911 161.058 91.085 160.97 86.3083 160.794C81.5277 160.534 76.7494 160.169 71.9775 159.806L72.1977 158.82C80.9338 164.753 90.2134 169.336 99.7571 172.318C102.141 173.097 104.538 173.766 106.945 174.342C109.359 174.919 111.775 175.465 114.188 175.724C118.959 176.291 123.971 176.041 127.922 172.945L128.041 173.116C126.227 174.894 123.987 176.152 121.586 176.736C119.188 177.344 116.683 177.501 114.198 177.342C109.216 176.974 104.297 175.909 99.4203 174.439C94.5467 172.934 89.7722 170.867 85.1318 168.43C80.4877 165.982 76.0204 163.04 71.759 159.719L70.1753 158.478L71.9855 158.733C76.7517 159.413 81.5242 160.06 86.2712 160.064C91.0209 160.142 95.7159 159.56 100.217 158.415C102.488 157.926 104.632 156.981 107.038 156.498C109.437 156.003 111.972 156.114 114.414 156.768C119.291 158.159 123.816 161.681 126.735 166.459L126.601 166.579Z" fill="#EDCA5C"/>
<path d="M154.825 210.928C154.853 211.301 155.134 211.437 155.424 211.393C155.712 211.359 156 211.217 156.243 211.038C156.686 210.686 157.064 209.98 157.477 209.457L159.913 206.049C161.534 203.799 163.059 201.443 164.503 199.053C167.375 194.266 169.703 188.975 170.653 183.144C171.655 177.333 171.396 171.089 170.954 164.913C170.575 158.743 170.034 152.431 171.189 146.36L171.811 147.104C166.988 148.719 162.672 151.83 159.365 156.034C156.022 160.218 154.006 165.638 152.199 171.141C150.387 176.678 148.583 182.216 147.618 188.055C146.633 193.848 146.482 200.055 148.271 206.008L148.11 206.077C145.786 200.267 145.504 193.703 146.271 187.661C147.043 181.577 148.676 175.81 150.448 170.212C152.233 164.627 154.479 158.99 158.125 154.638C161.701 150.28 166.408 147.28 171.508 145.991L172.366 145.779L172.132 146.728C170.738 152.46 170.996 158.76 171.548 164.914C172.026 171.078 172.897 177.362 172.077 183.583C171.273 189.81 168.667 195.279 165.613 200.047C164.086 202.458 162.357 204.648 160.618 206.804C159.745 207.884 158.839 208.921 157.93 209.957C157.442 210.448 157.108 211.029 156.467 211.461C156.161 211.636 155.822 211.754 155.455 211.748C155.273 211.735 155.074 211.703 154.903 211.547C154.723 211.399 154.649 211.13 154.65 210.926L154.825 210.928Z" fill="#EDCA5C"/>
<path d="M130.904 187.218C126.075 184.857 121.29 182.356 116.362 180.678C113.91 179.795 111.424 179.113 108.936 178.795C106.448 178.496 103.992 178.458 101.52 178.757C99.0487 179.047 96.4951 179.41 93.8818 179.216C91.2752 179.064 88.7147 178.396 86.1965 177.646C81.1621 176.145 76.2206 174.104 71.1626 173.394L71.417 172.657C75.9856 177.311 80.617 181.929 85.668 185.593C88.1807 187.441 90.8207 189 93.5554 190.13C96.2887 191.269 99.1258 191.929 101.987 192.412C104.846 192.834 107.736 193.178 110.647 193.299L119.358 193.914C125.098 194.043 131.286 195.997 136.126 192.228L136.23 192.399C135.1 193.38 133.846 194.194 132.476 194.753C131.101 195.299 129.628 195.555 128.16 195.607C125.215 195.693 122.352 195.635 119.427 195.566C113.589 195.355 107.806 195.522 101.883 194.575C95.9696 193.778 89.9965 191.146 84.9084 187.127C79.7523 183.168 75.3433 178.165 70.9485 173.275L70.0945 172.326L71.2037 172.537C76.334 173.53 81.2798 175.589 86.2975 176.863C88.8049 177.465 91.3344 177.901 93.8163 177.873C96.2965 177.894 98.7155 177.325 101.24 177.018C106.328 176.157 111.693 177.254 116.659 179.204C121.651 181.236 126.374 184.027 130.97 187.037L130.904 187.218Z" fill="#EDCA5C"/>
<path d="M144.493 202.306C142.171 201.158 139.711 201.062 137.346 201.315C134.974 201.574 132.593 202.033 130.411 202.91C128.184 203.722 126.277 205.087 124.64 206.991C123.8 207.918 122.983 208.922 122.067 209.846C121.138 210.754 120.16 211.58 119.144 212.345C117.131 213.878 114.952 215.064 112.769 216.185L106.205 219.452C104.03 220.567 101.824 221.621 99.584 222.582C97.3638 223.592 95.0849 224.462 92.7584 225.19L92.7385 224.402C98.2983 226.507 103.996 227.944 109.659 228.593C115.331 229.267 120.988 228.93 126.339 227.415C131.697 225.892 136.866 223.453 142.072 221.142C147.277 218.82 152.53 216.603 157.787 214.398L157.867 214.588C152.869 217.424 147.798 220.108 142.688 222.698C137.592 225.284 132.491 227.973 126.911 229.551C121.335 231.148 115.417 231.236 109.617 230.403C103.799 229.539 98.0899 227.597 92.5546 225.174L91.4234 224.685L92.5408 224.395C94.8677 223.788 97.1314 222.938 99.3672 221.998C101.576 221 103.734 219.864 105.876 218.69C110.08 216.185 114.392 213.79 118.258 210.839C120.204 209.354 121.824 207.559 123.588 205.656C125.323 203.72 127.561 202.195 129.931 201.43C132.32 200.664 134.761 200.38 137.228 200.281C139.689 200.248 142.314 200.619 144.559 202.125L144.493 202.306Z" fill="#EDCA5C"/>
<path d="M196.775 243.402C198.385 240.886 199.422 237.955 199.949 234.862C200.461 231.764 200.589 228.483 200.93 225.28C201.487 218.849 201.763 212.405 200.787 205.965C199.812 199.508 197.982 193.087 195.766 186.871C193.623 180.624 191.284 174.449 189.004 168.26L190.264 168.133C190.034 173.482 189.762 178.843 189.251 184.172C188.774 189.498 187.995 194.823 186.803 199.928C185.687 205.042 184.392 210.048 183.997 215.286C183.563 220.47 183.929 225.968 185.963 231.007L185.813 231.096C184.588 228.678 183.726 226.007 183.241 223.28C182.777 220.553 182.632 217.783 182.701 215.052C182.94 209.601 183.993 204.36 185.044 199.248C186.102 194.14 186.93 189.012 187.519 183.757C188.112 178.51 188.505 173.198 188.947 167.894L189.219 164.626L190.209 167.756C192.209 174.088 194.153 180.424 196.278 186.682C196.791 188.262 197.359 189.816 197.91 191.376L199.428 196.115C200.447 199.27 201.372 202.484 202.036 205.783C202.734 209.077 202.977 212.472 202.984 215.792C202.964 219.108 202.648 222.378 202.298 225.593C201.933 228.813 201.584 232.031 200.888 235.204C200.195 238.39 198.796 241.291 196.914 243.545L196.775 243.402Z" fill="#EDCA5C"/>
<path d="M190.179 249.273C184.735 245.136 178.93 241.817 172.889 239.625C169.893 238.456 166.821 237.629 163.745 237.043C160.664 236.482 157.573 236.056 154.493 236.023C151.416 235.976 148.321 236.029 145.303 236.548C142.267 236.995 139.273 237.773 136.264 238.516C133.251 239.247 130.175 239.762 127.072 240.023C123.965 240.269 120.82 240.248 117.668 239.971L117.987 239.148C122.702 244.926 128.665 249.007 134.887 251.835C141.12 254.725 147.65 256.362 154.18 257.745C160.714 259.001 167.287 259.755 173.828 259.74C180.36 259.698 186.862 258.938 193.178 257.278L193.237 257.476C187.092 259.78 180.584 261.028 173.971 261.368C167.365 261.678 160.663 261.142 154.028 259.849C147.397 258.576 140.761 256.675 134.391 253.591C128.031 250.548 121.966 245.986 117.366 239.791L116.636 238.809L117.687 238.96C123.892 239.877 130.162 239.471 136.08 237.777C139.07 237.02 141.991 235.967 145.057 235.341C148.099 234.653 151.229 234.31 154.387 234.311C160.704 234.247 167.099 235.691 173.215 238.143C179.33 240.655 185.152 244.36 190.271 249.107L190.179 249.273Z" fill="#EDCA5C"/>
<path d="M117.734 238.111C123.057 242.412 128.865 245.269 134.846 247.357C137.825 248.465 140.87 249.437 143.955 249.976C147.042 250.501 150.142 250.628 153.216 250.527C159.356 250.3 165.462 249.775 171.639 249.542C177.811 249.414 184.099 249.602 190.307 251.073L190.299 251.283C184.096 251.1 177.992 251.405 171.848 251.73C165.709 251.95 159.517 252.201 153.27 251.653C150.151 251.396 147.042 251.036 143.933 250.637C140.823 250.246 137.684 249.85 134.569 249.001C128.393 247.213 122.283 243.655 117.629 238.266L117.734 238.111Z" fill="#EDCA5C"/>
<path d="M192.711 238.328C193.392 233.078 193.688 227.914 193.811 222.642C193.929 220.026 194.042 217.366 193.88 214.689C193.725 212.023 193.301 209.358 192.787 206.71C191.731 201.432 190.647 196.138 189.943 190.747C189.307 185.332 189.31 179.892 189.874 174.62L190.049 174.635C190.597 180.03 190.993 185.328 191.789 190.6C192.467 195.892 193.322 201.226 193.73 206.624C193.952 209.32 194.154 212.002 194.449 214.682C194.737 217.367 195.133 220.065 195.266 222.781C195.425 228.178 194.734 233.628 192.882 238.401L192.711 238.328Z" fill="#EDCA5C"/>
<path d="M92.4522 224.537C102.542 225.947 112.152 223.134 121.321 219.54C130.603 216.114 139.647 211.615 148.894 208.102C149.976 207.574 150.963 206.857 151.625 205.845C152.281 204.84 152.631 203.545 152.887 202.188C153.315 199.413 153.738 196.474 154.287 193.664C155.377 187.997 156.683 182.399 158.368 176.985C160.038 171.563 162.067 166.327 164.308 161.258C165.439 158.726 166.656 156.26 167.931 153.836C168.549 152.6 169.251 151.48 169.707 150.196C170.165 148.936 170.378 147.443 169.759 146.106L169.906 146.009C170.684 147.356 170.601 149.073 170.228 150.45C169.869 151.879 169.253 153.149 168.71 154.405C167.578 156.915 166.572 159.498 165.543 162.059C163.521 167.217 161.732 172.499 160.133 177.868C158.515 183.232 157.084 188.69 155.89 194.251L154.237 202.692C153.919 204.125 153.454 205.617 152.567 206.793C151.677 207.973 150.486 208.679 149.305 209.16C144.51 210.704 139.877 212.285 135.38 214.522C130.849 216.619 126.489 219.122 121.899 221.149C117.312 223.168 112.508 224.677 107.542 225.481C102.592 226.233 97.4288 226.18 92.4385 224.743L92.4522 224.537Z" fill="#EDCA5C"/>
<path d="M70.3934 171.739C75.5178 173.953 80.4604 176.808 85.3257 179.542C87.7467 180.928 90.2241 182.235 92.841 182.903C95.4567 183.582 98.1083 183.796 100.763 183.965C106.075 184.27 111.379 184.824 116.681 185.518C121.979 186.316 127.275 187.24 132.565 188.582L132.557 188.792C127.243 188.738 121.936 188.288 116.63 187.693C111.329 187 106.031 186.162 100.741 185.082C98.0899 184.565 95.4332 184.127 92.7723 183.558C90.1173 183.024 87.4258 182.254 84.8435 181.102C82.2721 179.925 79.8411 178.39 77.4372 176.852C75.0331 175.285 72.645 173.699 70.3261 171.92L70.3934 171.739Z" fill="#EDCA5C"/>
<path d="M116.209 45.9188C118.429 51.5486 120.297 57.3386 122.011 63.1585C123.7 68.9901 125.257 74.8567 127.028 80.6299C127.882 83.5608 128.903 86.2919 129.744 89.3392C130.137 90.84 130.452 92.3296 130.794 93.7941C130.953 94.5471 131.155 95.1909 131.309 96.0154C131.488 96.8653 131.526 97.6377 131.588 98.4229C131.791 104.584 131.192 110.481 130.714 116.415C130.139 122.327 129.457 128.205 128.817 134.087C128.16 139.948 127.479 145.817 127.146 151.734C126.819 157.647 126.816 163.651 127.672 169.604C128.115 172.577 128.752 175.526 129.629 178.398C130.537 181.265 131.693 184.041 133.039 186.695C135.835 191.943 139.422 196.624 143.418 200.706C147.428 204.784 151.792 208.327 156.288 211.596C165.259 218.145 174.811 223.575 183.627 230.757C187.99 234.391 192.248 238.354 195.891 243.079C199.565 247.746 202.677 253.133 204.757 258.961C206.853 264.778 208.123 270.834 209.082 276.846C209.508 279.785 210.203 283.102 209.149 286.298C208.638 287.903 207.423 289.17 206.034 289.671C205.323 289.936 204.542 290.032 203.732 289.848C202.924 289.686 202.091 289.18 201.497 288.401L201.275 288.119L201.251 287.778C200.274 275.921 197.552 264.01 192.559 253.204C187.562 242.413 180.41 232.912 172.146 225.148L172.243 224.992C176.507 228.705 180.519 232.858 184.132 237.473C187.72 242.114 190.888 247.217 193.509 252.653C198.787 263.537 201.779 275.646 202.987 287.726L202.737 287.079C203.345 287.864 204.399 288.066 205.375 287.701C206.356 287.316 207.137 286.51 207.496 285.378C208.307 283.017 207.783 280.028 207.31 277.067C206.351 271.137 205.088 265.245 203.057 259.67C201.101 254.069 198.188 248.92 194.67 244.368C191.182 239.771 187.057 235.857 182.793 232.233C174.228 224.979 164.769 219.337 155.822 212.535C151.347 209.142 147.009 205.444 143.014 201.248C139.008 197.099 135.394 192.328 132.599 186.981C131.209 184.305 130.015 181.499 129.064 178.595C128.151 175.685 127.472 172.692 126.993 169.681C126.031 163.653 125.872 157.564 126.077 151.569C126.512 139.566 128.102 127.855 129.146 116.061C129.678 110.191 130.313 104.251 130.164 98.3848C130.119 97.6601 130.089 96.9332 129.953 96.2935C129.843 95.6204 129.607 94.8113 129.462 94.0879C129.126 92.5919 128.828 91.1153 128.462 89.6754C128.113 88.2485 127.627 86.8403 127.172 85.3703L125.897 80.9899C122.565 69.2908 120.101 57.4047 116.055 45.989L116.209 45.9188Z" fill="#EDCA5C"/>
<path d="M92.3949 69.9384C95.5957 79.4035 101.009 87.4881 106.895 94.9751C109.801 98.7684 112.838 102.494 116.006 106.033L125.676 116.527C127.3 118.278 128.763 120.333 130.592 120.613C132.434 120.961 134.323 120.06 136.243 119.279C140.071 117.682 143.857 115.968 146.995 113.281C150.099 110.634 152.467 106.755 154.168 102.559C155.899 98.3406 156.914 93.6581 157.557 88.8519L157.737 88.8859C157.656 93.8212 156.976 98.7467 155.426 103.299C153.85 107.808 151.585 112.069 148.177 115.081C144.785 118.042 140.774 119.634 136.88 121.118C134.963 121.813 132.857 122.777 130.435 122.215C129.232 121.93 128.117 121.082 127.303 120.137C126.464 119.181 125.775 118.214 125.029 117.283C122.063 113.518 118.89 109.96 115.643 106.507C112.386 103.068 109.014 99.7562 105.881 96.0968C102.747 92.4376 99.9701 88.3521 97.5487 84.0069C95.1671 79.6435 93.2376 74.9097 92.2249 69.9868L92.3964 69.9395" fill="#EDCA5C"/>
<path d="M124.423 150.492C120.428 146.983 116.713 143.123 113.205 139.007C111.485 136.908 109.851 134.689 108.095 132.651C106.332 130.603 104.426 128.734 102.413 127.099C100.39 125.461 98.3169 124.059 96.1438 122.788C93.9795 121.51 91.7084 120.353 89.5469 118.814C85.2543 115.72 81.4044 111.653 78.5305 106.857L78.6522 106.727C82.3167 110.675 86.204 114.15 90.3922 116.952C94.4933 119.765 99.2568 122.137 102.959 126.237C104.844 128.188 106.606 130.244 108.458 132.183C110.31 134.124 112.272 135.92 114.155 137.813C117.842 141.705 121.331 145.855 124.534 150.344L124.423 150.492Z" fill="#EDCA5C"/>
<path d="M73.1904 158.153C77.4971 161.207 82.3284 162.492 87.0932 162.935C91.8789 163.458 96.657 163.046 101.524 163.18C106.382 163.336 111.363 163.995 116.12 165.925C118.465 166.93 120.753 168.101 123.107 168.904C125.421 169.724 127.943 170.084 129.924 168.981C131.96 167.884 132.936 165.429 133.499 162.828C134.097 160.222 134.361 157.337 135.493 154.672C136.049 153.341 136.902 152.124 137.918 151.245C138.928 150.348 140.044 149.708 141.158 149.153C143.38 148.087 145.598 147.256 147.822 146.306C156.745 142.704 165.716 139.24 174.802 136.164L174.868 136.357C166.196 140.677 157.412 144.586 148.583 148.375C146.383 149.31 144.107 150.196 141.96 151.148C139.827 152.111 137.934 153.401 136.969 155.672C135.951 157.919 135.55 160.695 134.837 163.4C134.475 164.754 134.011 166.125 133.283 167.319C132.559 168.515 131.537 169.472 130.37 170.014C127.971 171.153 125.323 170.423 122.975 169.592C120.586 168.705 118.311 167.457 115.967 166.6C111.28 164.758 106.409 164.779 101.642 164.882C96.8547 164.979 91.9886 165.205 87.0651 164.497C82.1865 163.807 77.1212 162.035 73.0972 158.326L73.1904 158.153Z" fill="#EDCA5C"/>
</g>
<defs>
<clipPath id="clip0_411_147">
<rect width="241" height="289" fill="white" transform="translate(0 56.7188) rotate(-13.6121)"/>
</clipPath>
</defs>
</svg>
