<svg width="249" height="407" viewBox="0 0 249 407" fill="none" xmlns="http://www.w3.org/2000/svg">
<g clip-path="url(#clip0_411_226)">
<path d="M96.7623 125.745C93.3426 129.385 90.7031 133.706 88.5425 138.101C87.4788 140.31 86.5481 142.58 85.9035 144.869C85.3069 147.134 84.874 149.54 85.4691 151.438C86.02 153.362 87.9173 154.128 90.1034 154.102C92.2767 154.056 94.6474 153.607 96.7744 152.756C98.9428 151.891 100.998 150.626 103.026 149.241C105.044 147.87 107.085 146.381 109.082 144.917C111.057 143.445 112.975 141.908 114.687 140.19C116.384 138.472 117.909 136.552 119.295 134.525C122.003 130.439 124.483 126.082 127.044 121.823C129.6 117.549 132.059 113.233 134.516 108.909L138.111 102.375C139.278 100.247 140.566 97.9093 140.033 95.9153L140.791 96.2777C136.87 97.9776 134.325 101.789 131.012 104.941C129.388 106.542 127.411 108.041 125.317 108.997C123.244 109.996 121.164 110.702 119.191 111.583C115.22 113.326 111.385 115.622 107.539 117.879C103.698 120.12 99.9405 122.582 96.7623 125.745ZM96.622 125.61C99.8023 122.414 103.513 119.834 107.195 117.283C110.904 114.796 114.556 112.159 118.61 110.104C120.639 109.072 122.722 108.305 124.642 107.351C126.565 106.406 128.265 105.236 129.847 103.709C131.439 102.218 132.93 100.537 134.639 98.9974C136.32 97.4507 138.25 96.0023 140.443 95.1711L141.074 94.9348L141.195 95.5367C141.475 96.8508 141.139 98.2215 140.62 99.3885C140.106 100.577 139.416 101.645 138.803 102.719L135.068 109.177C132.651 113.519 130.224 117.858 127.904 122.243C125.498 126.598 123.385 131.053 120.672 135.349C119.317 137.484 117.803 139.582 115.998 141.447C114.202 143.318 112.228 144.966 110.22 146.519C106.217 149.501 102.289 152.807 97.3869 154.756C96.1904 155.234 94.9053 155.606 93.6632 155.812C92.438 156.081 91.1515 156.218 89.8648 156.216C88.5813 156.162 87.2124 156.046 86.0383 155.31C84.8449 154.631 83.9866 153.418 83.6703 152.124C83.0249 149.5 83.7178 146.927 84.5391 144.568C85.4004 142.186 86.5465 139.942 87.7801 137.758C90.3331 133.441 93.1501 129.277 96.6231 125.608" fill="#EDCA5C"/>
<path d="M81.3574 150.69C82.8459 148.499 83.9625 146.14 84.8639 143.719C85.8025 141.305 86.5366 138.835 87.0968 136.357C88.4168 131.409 88.3065 126.409 88.8935 121.267C89.1832 118.71 89.5331 116.123 90.2725 113.566C90.9639 111.002 92.0003 108.528 93.116 106.134C95.3212 101.371 97.8129 96.6188 98.4337 91.5719L98.9963 91.8776C93.4701 95.9088 88.5423 100.725 84.0472 105.818C81.8174 108.383 79.69 111.036 77.7337 113.791C75.7902 116.531 74.1351 119.415 73.3026 122.435C72.4776 125.464 72.4709 128.669 72.4466 131.918C72.4484 133.556 72.4296 135.193 72.2528 136.916C72.0649 138.66 71.6286 140.35 71.0681 141.983C68.7722 148.505 65.0591 154.379 61.0807 159.96L60.9095 159.861C64.2862 153.963 67.4911 147.882 69.4178 141.613C69.8885 140.055 70.2208 138.475 70.3192 136.946C70.4172 135.39 70.3424 133.764 70.3313 132.145C70.2875 128.909 70.1828 125.503 71.1575 122.057C72.0893 118.581 74.0671 115.511 76.1145 112.708C78.1998 109.917 80.4087 107.243 82.8043 104.721C87.5588 99.6304 92.9772 95.2442 98.6134 91.2918L99.2862 90.8244L99.168 91.5998C98.3583 96.7866 95.9259 101.604 94.0454 106.453C93.101 108.88 92.2614 111.311 91.761 113.784C91.2687 116.252 90.929 118.754 90.7093 121.269C90.5132 123.787 90.2802 126.324 90.0173 128.881C89.7649 131.443 89.285 134.065 88.5644 136.591C87.0532 141.602 85.0642 146.7 81.5164 150.811L81.3574 150.69Z" fill="#EDCA5C"/>
<path d="M65.1447 157.742C66.0832 160.672 67.3851 163.444 69.2571 165.744C71.1288 168.032 73.448 169.924 75.999 171.416C78.5808 172.889 81.4419 173.899 84.3918 174.593C87.3413 175.278 90.421 175.668 93.5625 175.569C99.8654 175.437 106.28 173.361 112.084 170.234C117.904 167.063 123.202 162.97 128.25 158.655L129.442 159.993C127.697 161.754 125.4 162.764 123.204 163.279C120.99 163.808 118.812 163.931 116.692 163.977C112.478 164.04 108.246 163.901 104.096 163.242C99.9789 162.546 95.9115 161.337 92.3963 159.194C88.8945 157.073 85.9324 154.025 84.4272 150.214L84.6177 150.113C86.6091 153.575 89.6894 156.169 93.1763 157.938C96.6803 159.7 100.572 160.734 104.593 161.188C108.613 161.711 112.737 161.769 116.888 161.761C118.941 161.756 120.98 161.697 122.943 161.271C124.902 160.865 126.769 160.073 128.187 158.71L129.371 160.053C124.114 164.298 118.412 168.023 112.385 170.923C106.39 173.857 100.056 176.037 93.5175 176.828C86.9886 177.556 80.3541 176.241 75.0277 172.898C69.6032 169.717 65.7589 164.094 64.9398 157.787L65.1447 157.742Z" fill="#EDCA5C"/>
<path d="M51.0386 163.198C50.6735 160.385 51.0967 157.413 51.856 154.567C52.6386 151.712 53.688 148.932 54.7171 146.191C56.8648 140.739 58.516 135.208 57.6445 129.797C57.2801 127.083 56.7546 124.316 56.4324 121.495C56.1073 118.676 55.9911 115.824 55.9472 112.974C55.9025 107.265 56.3879 101.522 57.3993 95.7806L58.1544 96.1946C55.7225 98.2453 54.1802 101.13 53.2664 104.072C52.3131 107.028 52.0105 110.099 51.7599 113.211C51.5072 116.308 51.2665 119.517 50.6373 122.695C50.0329 125.873 49.1334 129 48.148 132.075C46.1634 138.224 43.7044 144.179 42.0892 150.281C40.4721 156.351 39.5371 162.652 40.6796 168.68L40.4731 168.751C38.6493 162.895 39.0945 156.295 40.4667 150.053C41.8489 143.746 44.0906 137.652 46.0285 131.586C46.9981 128.558 47.8711 125.522 48.5516 122.476C49.2238 119.435 49.537 116.368 49.8535 113.216C50.2095 110.083 50.6663 106.841 51.833 103.702C52.9919 100.608 54.8603 97.5762 57.5867 95.4725L58.6235 94.6772L58.3418 95.8865C57.0236 101.511 56.4796 107.256 56.741 112.872C56.8468 115.685 57.2423 118.456 57.723 121.179C58.1677 123.908 59.0047 126.54 59.4026 129.385C59.8619 132.198 59.8388 135.284 59.0825 138.194C58.3938 141.118 57.3048 143.912 56.1801 146.644C53.8753 152.058 51.3041 157.44 51.2476 163.168L51.0386 163.198Z" fill="#EDCA5C"/>
<path d="M14.0669 192.314C21.485 191.351 28.8009 189.429 35.8137 186.527C37.7842 185.74 39.8667 185.673 41.7515 185.954C43.6526 186.227 45.4238 186.805 47.1125 187.453C50.4771 188.78 53.7 190.331 56.8523 191.999C63.1068 195.393 69.0419 199.242 75.4276 202.34C78.617 203.888 81.8894 205.296 85.2865 206.384C88.7034 207.442 92.2104 208.244 95.7903 208.667L95.4975 210.006C91.9744 209.738 88.7946 208.164 86.261 206.038C83.6606 203.934 81.6407 201.254 79.8912 198.496C76.4067 192.967 73.6538 187.124 68.9459 182.973C64.2551 178.851 58.4101 175.982 52.0278 174.738C45.6521 173.515 38.7668 173.839 32.1448 175.98L32.0962 175.789C38.5872 173.042 45.7277 172.211 52.4501 173.162C59.1297 174.227 65.4957 176.906 70.4598 181.319C72.923 183.526 75.0456 186.131 76.7912 188.906C78.522 191.695 79.9874 194.595 81.6405 197.311C83.2785 200.048 85.1565 202.571 87.4804 204.643C89.7917 206.712 92.6116 208.228 95.7644 208.668L95.4708 210.006C88.2151 208.725 81.4951 206.034 75.0983 202.94C68.661 199.876 62.4029 196.508 55.9846 193.489C52.7945 191.967 49.5912 190.468 46.2927 189.194C43.0909 187.894 39.5654 186.816 36.2616 188.033C29.052 190.768 21.4831 192.345 14.061 192.523L14.0669 192.314Z" fill="#EDCA5C"/>
<path d="M30.0119 175.645C31.9416 170.145 32.0095 164.296 30.2241 159.295C29.3519 156.783 27.98 154.518 26.1709 152.659C24.3244 150.829 22.2411 149.016 20.3708 146.993C16.6637 142.936 13.8433 138.203 11.1338 133.471C8.50058 128.691 5.96471 123.859 3.4314 119.033L4.47555 118.729C4.24542 130.332 5.58977 141.753 8.57217 152.589C9.28557 155.315 10.1088 157.994 11.0236 160.634C11.9419 163.282 12.8897 165.916 14.1008 168.395C16.4452 173.327 19.6894 178.063 24.9253 180.274L24.8382 180.48C22.1056 179.652 19.5967 178.137 17.6136 176.113C15.6098 174.103 13.9588 171.753 12.6122 169.255C9.95692 164.223 7.98322 158.886 6.41045 153.377C4.87032 147.853 3.91017 142.129 3.37202 136.342C2.84138 130.545 2.87392 124.66 3.38097 118.775L3.57568 116.585L4.42768 118.477C6.66476 123.464 8.93621 128.439 11.7868 133.051C14.5694 137.706 17.9296 141.96 21.6941 145.729C23.5105 147.678 25.6723 149.264 27.5656 151.346C29.4657 153.417 30.8861 155.937 31.7507 158.653C33.3964 164.12 32.8631 170.366 30.2038 175.713L30.0119 175.645Z" fill="#EDCA5C"/>
<path d="M6.00542 226.365C5.67758 226.589 5.72075 226.932 5.93658 227.191C6.1413 227.453 6.44467 227.658 6.75686 227.8C7.34807 228.045 8.22699 228.041 8.95918 228.168L13.5719 228.743C16.6257 229.134 19.7184 229.377 22.7953 229.524C28.9442 229.798 35.2324 229.277 41.1908 227.135C47.1622 225.055 52.7755 221.522 58.2153 217.847C63.6878 214.236 69.1944 210.393 75.498 208.324L75.1849 209.32C70.7924 205.484 65.3233 202.927 59.4512 201.924C53.5769 200.877 47.357 201.767 41.1862 202.905C34.9811 204.054 28.7803 205.212 22.8058 207.344C16.8606 209.432 11.0353 212.548 6.61168 217.414L6.4507 217.294C10.4213 211.983 16.3159 208.259 22.3594 205.829C28.4446 203.382 34.7542 201.936 40.9925 200.716C47.2247 199.514 53.7836 198.733 59.9959 199.987C66.1719 201.17 71.7734 204.165 76.0307 208.441L76.742 209.162L75.7247 209.433C69.5911 211.092 63.9255 214.654 58.5709 218.424C53.164 222.128 47.8822 226.277 41.6409 228.749C35.4043 231.242 28.7854 231.584 22.5438 231.125C19.399 230.908 16.3358 230.379 13.299 229.824C11.7759 229.544 10.2729 229.208 8.76921 228.87C8.02268 228.655 7.28481 228.636 6.49989 228.24C6.15494 228.035 5.84252 227.768 5.62698 227.408C5.52938 227.224 5.43934 227.013 5.48035 226.766C5.50887 226.513 5.71321 226.3 5.90206 226.194L6.00542 226.365Z" fill="#EDCA5C"/>
<path d="M13.5306 190.671C12.8091 184.74 12.243 178.778 10.8307 173.11C10.1723 170.264 9.30727 167.492 8.10564 164.908C6.88658 162.334 5.44508 159.929 3.68258 157.685C1.92921 155.438 0.0585526 153.149 -1.33274 150.508C-2.7595 147.897 -3.68191 145.059 -4.50315 142.219C-6.14271 136.541 -7.22743 130.668 -9.61247 125.383L-8.77859 125.243C-10.332 132.126 -11.8137 139.051 -12.1623 145.882C-12.3591 149.294 -12.2124 152.677 -11.6126 155.927C-11.022 159.181 -9.92573 162.283 -8.6518 165.316C-7.32322 168.314 -5.90384 171.301 -4.2655 174.192L0.402938 182.976C3.73479 188.619 5.64906 195.656 12.0412 198.376L11.9452 198.567C10.3595 197.985 8.85392 197.195 7.51422 196.158C6.18308 195.11 5.06046 193.814 4.13042 192.415C2.28031 189.6 0.61231 186.789 -1.08237 183.912C-4.39678 178.131 -8.02789 172.602 -10.7129 166.351C-13.5322 160.189 -14.6915 153.005 -14.0369 145.951C-13.4783 138.862 -11.507 131.951 -9.63144 125.113L-9.26807 123.784L-8.79557 124.972C-6.62914 130.477 -5.55813 136.363 -3.719 141.906C-2.76749 144.657 -1.64945 147.343 -0.132117 149.739C1.34017 152.159 3.31969 154.209 5.12095 156.499C8.97478 160.989 11.1871 166.777 12.3714 172.624C13.4951 178.54 13.7552 184.594 13.7375 190.64L13.5306 190.671Z" fill="#EDCA5C"/>
<path d="M7.75991 211.799C7.42526 208.941 6.03445 206.501 4.37896 204.337C2.71378 202.169 0.858386 200.098 -1.26325 198.44C-3.3523 196.703 -5.75989 195.569 -8.50324 194.979C-9.86496 194.651 -11.283 194.385 -12.6886 193.981C-14.0849 193.556 -15.4361 193.04 -16.7542 192.455C-19.3807 191.306 -21.786 189.813 -24.1344 188.281L-31.0984 183.624C-33.4362 182.097 -35.7365 180.509 -37.9713 178.838C-40.2386 177.212 -42.4126 175.456 -44.4841 173.579L-43.7679 173.146C-42.3706 179.652 -40.2724 185.941 -37.468 191.782C-34.6808 197.646 -30.9682 202.963 -26.352 207.363C-21.7242 211.767 -16.3628 215.506 -11.0978 219.347C-5.82361 223.182 -0.617106 227.119 4.57991 231.065L4.453 231.243C-1.1723 227.88 -6.70009 224.365 -12.165 220.763C-17.6178 217.173 -23.1688 213.632 -27.9813 209.041C-32.8085 204.465 -36.4478 198.763 -39.1657 192.692C-41.8647 186.588 -43.503 180.023 -44.5912 173.373L-44.8196 172.017L-43.8806 172.95C-41.92 174.891 -39.7745 176.643 -37.5619 178.321C-35.3121 179.941 -32.9647 181.44 -30.5923 182.903C-25.7504 185.67 -20.9453 188.6 -15.8953 190.803C-13.3534 191.913 -10.7215 192.543 -7.90254 193.256C-5.07086 193.924 -2.31631 195.296 -0.184856 197.196C1.9594 199.113 3.6896 201.335 5.26362 203.679C6.77355 206.051 8.00882 208.796 7.96688 211.769L7.75991 211.799Z" fill="#EDCA5C"/>
<path d="M1.22185 284.176C4.51477 284.417 7.84567 283.883 11.0202 282.769C14.1908 281.639 17.2982 280.039 20.4627 278.687C26.7395 275.848 32.8592 272.729 38.2227 268.397C43.6015 264.057 48.4342 258.905 52.8444 253.485C57.3276 248.121 61.6269 242.604 65.9738 237.137L66.8494 238.294C61.769 240.881 56.652 243.435 51.4217 245.74C46.2142 248.074 40.8267 250.117 35.3928 251.642C29.9967 253.246 24.594 254.619 19.5172 256.989C14.4662 259.291 9.60672 262.537 6.17391 267.16L6.00165 267.061C7.49893 264.601 9.44825 262.36 11.6769 260.456C13.9173 258.572 16.3885 256.975 18.9536 255.606C24.1339 252.974 29.6092 251.242 34.9636 249.577C40.3194 247.919 45.5549 246.029 50.7634 243.839C55.9683 241.657 61.112 239.247 66.2783 236.889L69.4609 235.436L67.1641 238.042C62.5164 243.312 57.8313 248.531 53.327 253.884C52.1761 255.212 51.0811 256.58 49.9711 257.935L46.5056 261.9C44.2033 264.548 41.7897 267.136 39.1414 269.514C36.5179 271.923 33.5262 273.943 30.4639 275.695C27.3884 277.418 24.1767 278.83 20.9965 280.18C17.8013 281.517 14.619 282.87 11.2688 283.861C7.90897 284.863 4.38686 285.029 1.17324 284.385L1.22185 284.176Z" fill="#EDCA5C"/>
<path d="M-8.16765 280.854C-7.61869 273.393 -8.04152 266.011 -9.6478 258.991C-10.3693 255.467 -11.4521 252.049 -12.7603 248.754C-14.0938 245.466 -15.5579 242.24 -17.3792 239.232C-19.1863 236.218 -21.0957 233.24 -23.3893 230.581C-25.6271 227.868 -28.1456 225.369 -30.6412 222.837C-33.1282 220.294 -35.453 217.578 -37.5598 214.701C-39.655 211.813 -41.5263 208.747 -43.1659 205.54L-42.2133 205.418C-44.7164 213.034 -44.9024 220.97 -43.7754 228.499C-42.6986 236.072 -40.2843 243.275 -37.6369 250.343C-34.8687 257.349 -31.6141 264.13 -27.6678 270.475C-23.7023 276.797 -19.0915 282.712 -13.7608 287.975L-13.9084 288.136C-19.731 283.378 -24.7961 277.713 -29.0865 271.47C-33.3435 265.216 -36.8779 258.426 -39.6725 251.302C-42.4818 244.192 -44.7157 236.748 -45.6958 228.941C-46.7075 221.165 -46.1382 212.876 -43.1806 205.152L-42.7117 203.927L-42.2199 205.028C-39.3367 211.535 -35.1922 217.413 -30.0693 222.27C-27.573 224.776 -24.8441 227.059 -22.422 229.708C-19.9579 232.301 -17.7588 235.161 -15.861 238.229C-12.0047 244.33 -9.49384 251.3 -8.08278 258.529C-6.72706 265.788 -6.65063 273.39 -7.95972 280.856L-8.16765 280.854Z" fill="#EDCA5C"/>
<path d="M-41.4077 204.627C-42.1806 212.058 -41.3288 219.2 -39.6621 226.106C-38.895 229.582 -37.9629 233.05 -36.6062 236.33C-35.2352 239.603 -33.4885 242.681 -31.5476 245.614C-27.6466 251.457 -23.4903 257.112 -19.5627 262.989C-15.7333 268.917 -12.1271 275.122 -9.7545 281.924L-9.95303 282.027C-13.5129 275.907 -17.4642 270.139 -21.4581 264.342C-25.352 258.496 -29.306 252.613 -32.5552 246.258C-34.1926 243.093 -35.7291 239.885 -37.2296 236.656C-38.7383 233.429 -40.2599 230.172 -41.3483 226.701C-43.4084 219.763 -43.7942 211.959 -41.6134 204.606L-41.4077 204.627Z" fill="#EDCA5C"/>
<path d="M3.46696 277.562C8.72618 275.463 13.6748 273.037 18.6204 270.386C21.1076 269.126 23.6331 267.837 26.0091 266.274C28.3796 264.721 30.5868 262.908 32.7244 261.019C36.9653 257.218 41.2054 253.384 45.7627 249.867C50.384 246.403 55.4117 243.547 60.6211 241.324L60.7122 241.502C56.0571 244.87 51.4005 248.038 47.008 251.582C42.5268 255.022 38.1129 258.656 33.3711 261.889C31.0125 263.521 28.6567 265.127 26.3577 266.822C24.05 268.513 21.7959 270.315 19.3658 271.872C14.4764 274.863 9.0251 277.056 3.50188 277.766L3.46696 277.562Z" fill="#EDCA5C"/>
<path d="M-44.0651 172.939C-39.3021 183.479 -30.9257 191.334 -22.0933 198.35C-13.3475 205.565 -3.75409 211.984 5.05015 219.119C6.18922 219.892 7.44507 220.475 8.77762 220.586C10.1004 220.694 11.5073 220.354 12.915 219.89C15.7364 218.847 18.7061 217.713 21.6323 216.769C27.5235 214.85 33.4806 213.177 39.4953 211.967C45.5091 210.74 51.5667 209.959 57.5963 209.471C60.6163 209.239 63.626 209.125 66.6319 209.09C68.1457 209.04 69.6022 209.134 71.0629 208.901C72.5019 208.684 74.0096 208.107 74.8728 206.803L75.0504 206.894C74.2735 208.358 72.6377 209.179 71.1413 209.54C69.6057 209.943 68.0609 210.012 66.5747 210.145C63.5753 210.364 60.5837 210.746 57.5992 211.092C51.6181 211.838 45.6624 212.878 39.7402 214.146C33.8123 215.393 27.9088 216.872 22.0541 218.635L13.2615 221.465C11.7461 221.91 10.088 222.243 8.46844 221.999C6.84295 221.755 5.47484 220.969 4.32046 220.075C0.0108432 216.229 -4.23446 212.56 -9.00551 209.368C-13.666 206.07 -18.5995 203.15 -23.2324 199.758C-27.8552 196.364 -32.1374 192.491 -35.865 188.09C-39.5363 183.678 -42.5912 178.636 -44.2632 173.033L-44.0651 172.939Z" fill="#EDCA5C"/>
<path d="M-8.54567 123.766C-7.5102 129.907 -7.17714 136.208 -6.77803 142.37C-6.60265 145.449 -6.32112 148.543 -5.36546 151.435C-4.41998 154.333 -3.02369 157.02 -1.58353 159.688C1.32744 165.007 4.00395 170.449 6.55117 175.964C8.99919 181.529 11.3283 187.158 13.2688 193.001L13.0703 193.104C9.92544 187.914 7.15065 182.523 4.51124 177.058C1.96389 171.545 -0.447155 165.959 -2.6289 160.253C-3.74496 157.407 -4.93753 154.596 -6.01167 151.713C-7.11402 148.853 -8.02131 145.835 -8.50861 142.721C-8.96704 139.605 -9.01017 136.437 -9.03502 133.294C-9.03215 130.136 -9.00289 126.983 -8.75357 123.796L-8.54567 123.766Z" fill="#EDCA5C"/>
<path d="M135.243 102.138C131.377 107.254 127.15 112.11 122.803 116.834C118.431 121.54 113.947 126.135 109.678 130.889C107.483 133.258 105.574 135.686 103.264 138.104C102.114 139.274 100.927 140.363 99.779 141.465C99.1794 142.015 98.7056 142.549 98.0365 143.132C97.3592 143.753 96.6681 144.196 95.9801 144.669C90.4095 148.104 84.6013 150.621 78.8322 153.276C73.0241 155.825 67.1829 158.251 61.3637 160.721C55.5543 163.164 49.7222 165.587 44.0549 168.373C38.3954 171.162 32.8472 174.315 27.8613 178.274C25.3815 180.268 23.0394 182.436 20.9132 184.797C18.8101 187.186 16.9399 189.767 15.2978 192.47C12.1295 197.943 9.96141 203.888 8.59268 209.914C7.23512 215.951 6.58494 222.052 6.26761 228.137C5.61009 240.292 6.3361 252.422 5.00065 264.759C4.26634 270.907 3.16409 277.125 0.98923 283.147C-1.11426 289.167 -4.21991 295.021 -8.35482 300.105C-12.4685 305.197 -17.3012 309.613 -22.2783 313.704C-24.7382 315.663 -27.3841 318.081 -30.9711 318.737C-32.7609 319.085 -34.6619 318.57 -35.96 317.484C-36.6323 316.933 -37.1909 316.225 -37.5078 315.341C-37.8434 314.471 -37.8771 313.397 -37.514 312.41L-37.3866 312.047L-37.0858 311.844C-26.7189 304.664 -17.3512 295.76 -10.3687 285.231C-3.40231 274.707 1.07575 262.768 3.28071 250.661L3.48298 250.674C2.61637 256.766 1.19083 262.846 -0.900385 268.78C-3.03151 274.703 -5.84204 280.462 -9.2883 285.864C-16.1716 296.711 -25.5599 305.981 -35.9945 313.503L-35.5474 312.92C-35.9075 313.923 -35.4602 315.053 -34.536 315.809C-33.5907 316.559 -32.376 316.895 -31.1145 316.648C-28.4464 316.195 -25.9998 314.115 -23.5483 312.099C-18.6462 308.051 -13.9619 303.728 -10.0313 298.826C-6.03305 293.982 -3.02633 288.447 -0.93595 282.639C1.21457 276.835 2.35083 270.771 3.13532 264.725C4.68792 252.594 4.21488 240.442 5.11989 228.177C5.5648 222.048 6.37296 215.891 7.8484 209.806C9.27346 203.734 11.5085 197.717 14.7691 192.193C16.4056 189.436 18.2801 186.802 20.3919 184.352C22.5303 181.936 24.8883 179.704 27.3824 177.656C32.3731 173.553 37.9031 170.199 43.5657 167.248C54.9166 161.362 66.692 156.751 78.2156 151.567C83.9595 148.999 89.8293 146.494 95.1593 143.266C95.8017 142.841 96.4552 142.43 96.9646 141.962C97.5201 141.501 98.1261 140.847 98.7071 140.326C99.8874 139.213 101.073 138.148 102.183 137.035C103.291 135.946 104.3 134.735 105.384 133.52L108.665 129.98C117.471 120.595 126.971 111.955 135.086 102.026L135.243 102.138Z" fill="#EDCA5C"/>
<path d="M98.7352 91.6334C91.9146 99.7165 87.6997 109.223 84.3209 118.875C82.5633 123.691 80.9466 128.598 79.5817 133.535L75.699 148.442C75.0584 150.94 74.0391 153.44 74.8803 155.364C75.6659 157.336 77.6335 158.698 79.5102 160.151C83.2862 163.03 87.1457 165.806 91.5146 167.441C95.8268 169.065 100.834 169.327 105.734 168.773C110.671 168.238 115.608 166.763 120.435 164.862L120.511 165.054C115.903 167.569 110.943 169.497 105.805 170.384C100.692 171.223 95.3939 171.263 90.5621 169.535C85.7874 167.797 81.9056 164.739 78.1938 161.736C76.399 160.24 74.2422 158.702 73.3051 156.053C72.8456 154.735 72.9589 153.206 73.3425 151.92C73.721 150.603 74.1999 149.424 74.6117 148.211C76.3077 143.351 77.6873 138.399 78.9253 133.431C80.1447 128.461 81.1776 123.446 82.6751 118.479C84.1716 113.512 86.2767 108.668 88.8356 104.033C91.4352 99.4264 94.6488 95.0645 98.5883 91.4937L98.735 91.6354" fill="#EDCA5C"/>
<path d="M43.5651 165.075C44.406 159.351 45.7388 153.714 47.4331 148.143C48.3384 145.37 49.406 142.617 50.2333 139.84C51.0653 137.051 51.6464 134.218 51.947 131.404C52.2444 128.579 52.2934 125.828 52.1608 123.05C52.0409 120.276 51.7441 117.462 51.8662 114.554C52.1448 108.758 53.5875 102.882 56.2912 97.5702L56.4843 97.6201C55.0397 103.254 54.1657 108.856 54.095 114.396C53.9618 119.858 54.6334 125.731 53.0716 131.482C52.4019 134.338 51.5618 137.129 50.8835 139.947C50.2042 142.766 49.7241 145.615 49.1069 148.439C47.7272 154.065 45.9913 159.635 43.7693 165.105L43.5651 165.075Z" fill="#EDCA5C"/>
<path d="M5.68781 119.343C5.45521 125.13 7.17241 130.498 9.62829 135.358C12.0219 140.281 15.2744 144.706 18.0769 149.503C20.8535 154.303 23.2388 159.488 24.3155 165.122C24.7961 167.927 25.0904 170.766 25.7642 173.474C26.3973 176.152 27.5806 178.791 29.791 180.135C32.0276 181.536 34.883 181.194 37.6243 180.373C40.3914 179.585 43.2163 178.324 46.3585 178.023C47.9226 177.865 49.5604 178.053 50.9823 178.578C52.4181 179.087 53.6806 179.835 54.8631 180.625C57.1837 182.223 59.2848 183.94 61.4994 185.601C70.1922 192.375 78.7856 199.267 87.09 206.475L86.951 206.64C77.7472 200.489 68.8538 194.011 60.0462 187.428C57.8594 185.783 55.6728 184.037 53.502 182.453C51.3301 180.887 49.0004 179.727 46.3217 179.983C43.634 180.175 40.8278 181.244 37.9 181.973C36.4314 182.333 34.8861 182.604 33.3456 182.523C31.8057 182.45 30.3064 181.96 29.1037 181.111C26.6101 179.38 25.692 176.424 25.0484 173.707C24.4319 170.921 24.2176 168.055 23.5994 165.328C22.484 159.808 19.536 155.088 16.5752 150.512C13.6078 145.913 10.4736 141.306 8.16757 136.152C5.87218 131.051 4.46417 125.201 5.47182 119.343L5.68781 119.343Z" fill="#EDCA5C"/>
</g>
<defs>
<clipPath id="clip0_411_226">
<rect width="276.426" height="305.7" fill="white" transform="translate(55.4036 -5.05151) rotate(45.655)"/>
</clipPath>
</defs>
</svg>
