<svg width="108" height="95" viewBox="0 0 108 95" fill="none" xmlns="http://www.w3.org/2000/svg">
<path d="M88.7859 74.1827C103.111 57.4912 86.3343 23.21 86.3343 23.21C86.3343 23.21 74.6707 39.145 61.877 43.5977C53.3286 46.5696 30.9296 60.4595 54.2812 79.9626C54.5291 80.171 54.7931 80.3813 55.0666 80.587C66.3635 75.4797 88.1577 61.1 85.9655 26.685C85.9655 26.685 93.753 65.8816 56.5676 81.6435C63.603 86.219 75.9911 89.0915 88.7859 74.1827Z" fill="#9AC979"/>
<path d="M49.3703 46.8601C43.8525 34.1251 32.251 20.0895 8.90306 8.66717C8.90306 8.66717 39.7406 19.8353 51.7619 45.4178C53.6098 44.3948 55.3458 43.6306 56.7239 43.1523C60.6807 41.7742 64.526 39.2998 67.9557 36.5372C55.7083 13.0342 4.91504 5.96277 4.91504 5.96277C4.91504 5.96277 16.4447 27.7762 13.2041 42.8706C11.176 52.3069 12.5874 79.6826 45.2598 75.9163C32.6244 62.6219 41.0447 52.3106 49.3703 46.8601Z" fill="#34AE62"/>
</svg>
