<svg width="88" height="72" viewBox="0 0 88 72" fill="none" xmlns="http://www.w3.org/2000/svg">
<g clip-path="url(#clip0_411_448)">
<path d="M72.344 63.7036C84.0166 51.0532 70.3464 25.0716 70.3464 25.0716C70.3464 25.0716 60.8428 37.1487 50.4182 40.5233C43.4528 42.7758 25.2018 53.3029 44.229 68.0841C44.431 68.2421 44.6462 68.4015 44.869 68.5574C54.0739 64.6865 71.8322 53.7883 70.0459 27.7053C70.0459 27.7053 76.3913 57.4122 46.0921 69.3581C51.8246 72.8258 61.9186 75.0029 72.344 63.7036Z" fill="#9AC979"/>
<path d="M40.2276 42.9958C35.7317 33.3441 26.2786 22.7066 7.25438 14.0497C7.25438 14.0497 32.3812 22.5139 42.1764 41.9028C43.6821 41.1274 45.0966 40.5483 46.2195 40.1858C49.4435 39.1413 52.5768 37.266 55.3713 35.1722C45.392 17.3594 4.00488 12 4.00488 12C4.00488 12 13.3994 28.5323 10.7589 39.9722C9.10639 47.124 10.2565 67.8719 36.8784 65.0174C26.5829 54.9417 33.4439 47.1267 40.2276 42.9958Z" fill="#34AE62"/>
</g>
<defs>
<clipPath id="clip0_411_448">
<rect width="88" height="72" fill="white"/>
</clipPath>
</defs>
</svg>
