<svg width="53" height="45" viewBox="0 0 53 45" fill="none" xmlns="http://www.w3.org/2000/svg">
<path d="M26.6094 11.7284C19.9199 11.7284 14.5 17.1483 14.5 23.8378C14.5 30.5272 19.9199 35.9471 26.6094 35.9471C33.2988 35.9471 38.7188 30.5272 38.7188 23.8378C38.7188 17.1483 33.2988 11.7284 26.6094 11.7284ZM26.6094 16.4159C28.9824 16.4159 30.9062 18.3397 30.9062 20.7128C30.9062 23.0858 28.9824 25.0096 26.6094 25.0096C24.2363 25.0096 22.3125 23.0858 22.3125 20.7128C22.3125 18.3397 24.2363 16.4159 26.6094 16.4159ZM26.6094 33.2128C23.7432 33.2128 21.1748 31.9139 19.4561 29.8827C20.374 28.1542 22.1709 26.9628 24.2656 26.9628C24.3828 26.9628 24.5 26.9823 24.6123 27.0165C25.2471 27.2216 25.9111 27.3534 26.6094 27.3534C27.3076 27.3534 27.9766 27.2216 28.6064 27.0165C28.7187 26.9823 28.8359 26.9628 28.9531 26.9628C31.0479 26.9628 32.8447 28.1542 33.7627 29.8827C32.0439 31.9139 29.4756 33.2128 26.6094 33.2128Z" fill="#C5C5C5"/>
<rect x="1" y="1" width="51" height="43" rx="7" stroke="#C5C5C5" stroke-width="2"/>
</svg>
