<svg width="54" height="46" viewBox="0 0 54 46" fill="none" xmlns="http://www.w3.org/2000/svg">
<path d="M39.0339 12.7308C36.6554 12.8657 31.928 13.3571 29.0095 15.1435C28.8082 15.2668 28.694 15.486 28.694 15.7151V31.5081C28.694 32.0094 29.2422 32.3262 29.7044 32.0936C32.707 30.5823 37.0495 30.17 39.1966 30.0571C39.9297 30.0185 40.4996 29.4308 40.4996 28.7264V14.0632C40.5 13.2946 39.8333 12.6856 39.0339 12.7308ZM26.99 15.1435C24.072 13.3571 19.3446 12.8662 16.9661 12.7308C16.1667 12.6856 15.5 13.2946 15.5 14.0632V28.7268C15.5 29.4317 16.0699 30.0194 16.803 30.0576C18.951 30.1704 23.2956 30.5832 26.2982 32.0953C26.7591 32.3275 27.3056 32.0111 27.3056 31.5111V15.7073C27.3056 15.4777 27.1918 15.2672 26.99 15.1435Z" fill="#C5C5C5"/>
<rect x="1.5" y="1.72839" width="51" height="43" rx="7" stroke="#34AE62" stroke-width="2"/>
</svg>
