<svg width="53" height="45" viewBox="0 0 53 45" fill="none" xmlns="http://www.w3.org/2000/svg">
<rect x="1" y="1" width="51" height="43" rx="7" stroke="#C5C5C5" stroke-width="2"/>
<path d="M27.1884 16.0438L20.4889 22.6345V29.7478C20.4889 29.932 20.5502 30.1086 20.6592 30.2389C20.7682 30.3691 20.9161 30.4423 21.0703 30.4423L25.1423 30.4297C25.2959 30.4288 25.4431 30.3552 25.5515 30.2251C25.6599 30.0949 25.7207 29.9188 25.7207 29.7352V25.5812C25.7207 25.397 25.782 25.2203 25.891 25.0901C26.0001 24.9599 26.1479 24.8867 26.3021 24.8867H28.6277C28.7819 24.8867 28.9298 24.9599 29.0388 25.0901C29.1479 25.2203 29.2091 25.397 29.2091 25.5812V29.7322C29.2089 29.8236 29.2237 29.9141 29.2529 29.9986C29.282 30.0831 29.3248 30.1599 29.3788 30.2246C29.4328 30.2894 29.4969 30.3407 29.5676 30.3757C29.6383 30.4108 29.714 30.4288 29.7905 30.4288L33.861 30.4423C34.0152 30.4423 34.1631 30.3691 34.2721 30.2389C34.3811 30.1086 34.4424 29.932 34.4424 29.7478V22.6298L27.7444 16.0438C27.6656 15.968 27.5675 15.9267 27.4664 15.9267C27.3652 15.9267 27.2672 15.968 27.1884 16.0438ZM37.7709 20.5234L34.7331 17.5325V11.5208C34.7331 11.3827 34.6872 11.2502 34.6054 11.1525C34.5236 11.0549 34.4127 11 34.2971 11H32.2622C32.1465 11 32.0356 11.0549 31.9538 11.1525C31.8721 11.2502 31.8261 11.3827 31.8261 11.5208V14.6723L28.5729 11.4753C28.2607 11.1684 27.8689 11.0006 27.4646 11.0006C27.0602 11.0006 26.6685 11.1684 26.3563 11.4753L17.1582 20.5234C17.1141 20.567 17.0776 20.6206 17.0507 20.681C17.0239 20.7415 17.0073 20.8077 17.0019 20.8758C16.9965 20.9439 17.0024 21.0126 17.0193 21.078C17.0361 21.1434 17.0636 21.2042 17.1001 21.2569L18.0267 22.6024C18.0631 22.6553 18.1079 22.6991 18.1585 22.7313C18.2091 22.7635 18.2646 22.7835 18.3217 22.79C18.3787 22.7966 18.4363 22.7897 18.4912 22.7696C18.546 22.7496 18.597 22.7168 18.6412 22.6732L27.1884 14.2643C27.2672 14.1885 27.3652 14.1472 27.4664 14.1472C27.5675 14.1472 27.6656 14.1885 27.7444 14.2643L36.292 22.6732C36.3361 22.7168 36.387 22.7496 36.4417 22.7697C36.4965 22.7898 36.554 22.7969 36.6111 22.7904C36.6681 22.784 36.7235 22.7642 36.7741 22.7321C36.8247 22.7001 36.8696 22.6565 36.9061 22.6037L37.8327 21.2582C37.8691 21.2052 37.8965 21.1441 37.9131 21.0784C37.9298 21.0127 37.9354 20.9438 37.9297 20.8755C37.9239 20.8072 37.9069 20.741 37.8797 20.6805C37.8524 20.6201 37.8155 20.5667 37.7709 20.5234Z" fill="#C5C5C5"/>
</svg>
