<svg width="50" height="45" viewBox="0 0 50 45" fill="none" xmlns="http://www.w3.org/2000/svg">
<path d="M38.2042 12.1504C37.9612 11.6079 37.2667 11.5862 36.9759 12.0983C35.6304 14.4378 33.2216 15.8961 30.4698 15.8961H26.9976C22.3969 15.8961 18.6643 19.6287 18.6643 24.2294C18.6643 24.5332 18.699 24.824 18.7294 25.1192C21.4985 23.1357 25.4959 21.4516 31.1643 21.4516C31.5462 21.4516 31.8587 21.7641 31.8587 22.1461C31.8587 22.528 31.5462 22.8405 31.1643 22.8405C20.2528 22.8405 15.6261 29.5289 14.6018 32.0419C14.3153 32.7494 14.6539 33.5567 15.3613 33.8475C16.0731 34.1426 16.8804 33.7997 17.1756 33.0966C17.2407 32.9404 18.0827 31.0176 20.2962 29.1643C21.7025 31.0697 24.3761 32.8883 27.8874 32.515C34.7016 32.0202 39.4976 25.9091 39.4976 18.4265C39.4976 16.2476 39.0289 13.9907 38.2042 12.1504Z" fill="#C5C5C5"/>
<rect x="1" y="1" width="48" height="43" rx="7" stroke="#C5C5C5" stroke-width="2"/>
</svg>
